<svg width="268" height="88" viewBox="0 0 268 88" fill="none" xmlns="http://www.w3.org/2000/svg">
<path d="M23.776 87.64C19.424 87.64 15.4987 86.5307 12 84.312C8.58667 82.008 5.856 78.68 3.808 74.328C1.84533 69.976 0.864 64.7707 0.864 58.712C0.864 51.3733 2.016 45.1013 4.32 39.896C6.624 34.6907 9.824 30.7653 13.92 28.12C18.016 25.3893 22.752 24.024 28.128 24.024C32.3947 24.024 36.96 25.0053 41.824 26.968L42.464 7.128C42.5493 5.42133 43.1893 3.97066 44.384 2.77599C45.664 1.49599 47.1573 0.855995 48.864 0.855995C50.4853 0.855995 51.8933 1.49599 53.088 2.77599C54.368 3.97066 54.9653 5.50666 54.88 7.384L53.088 81.88C53.0027 83.5867 52.3627 84.9947 51.168 86.104C49.9733 87.2133 48.5227 87.768 46.816 87.768C45.1947 87.768 43.7867 87.2987 42.592 86.36C41.4827 85.4213 40.928 84.184 40.928 82.648V80.344C38.7093 82.392 36.1067 84.1413 33.12 85.592C30.1333 86.9573 27.0187 87.64 23.776 87.64ZM24.8 76.12C27.7013 76.12 30.3893 75.5227 32.864 74.328C35.424 73.048 37.4293 71.512 38.88 69.72C40.3307 67.928 41.0987 66.264 41.184 64.728L41.696 39.512C40.16 38.488 38.1973 37.592 35.808 36.824C33.4187 35.9707 31.1147 35.544 28.896 35.544C23.6907 35.544 19.7653 37.5067 17.12 41.432C14.4747 45.272 13.152 50.904 13.152 58.328C13.152 64.472 14.176 68.9947 16.224 71.896C18.3573 74.712 21.216 76.12 24.8 76.12ZM94.107 87.768C89.243 87.768 84.763 86.4453 80.667 83.8C76.6563 81.1547 73.499 77.5707 71.195 73.048C68.891 68.44 67.739 63.448 67.739 58.072C67.739 52.0133 69.1043 46.3813 71.835 41.176C74.5657 35.8853 78.235 31.704 82.843 28.632C87.451 25.4747 92.4003 23.896 97.691 23.896C102.555 23.896 106.992 25.2613 111.003 27.992C115.099 30.7227 118.299 34.3493 120.603 38.872C122.992 43.3947 124.187 48.2587 124.187 53.464C124.187 59.608 122.822 65.3253 120.091 70.616C117.36 75.8213 113.648 80.0027 108.955 83.16C104.347 86.232 99.3977 87.768 94.107 87.768ZM94.107 76.248C97.0937 76.248 99.9523 75.224 102.683 73.176C105.414 71.128 107.59 68.3973 109.211 64.984C110.832 61.5707 111.643 57.944 111.643 54.104C111.643 50.8613 111.003 47.832 109.723 45.016C108.443 42.1147 106.694 39.8107 104.475 38.104C102.256 36.312 99.8243 35.416 97.179 35.416C94.1923 35.416 91.3763 36.4827 88.731 38.616C86.171 40.664 84.123 43.4373 82.587 46.936C81.051 50.3493 80.283 54.0187 80.283 57.944C80.283 61.784 80.923 65.0693 82.203 67.8C83.5683 70.5307 85.275 72.6213 87.323 74.072C89.4563 75.5227 91.7177 76.248 94.107 76.248ZM161.768 87.768C156.648 87.768 151.955 86.5307 147.688 84.056C143.421 81.5813 140.051 78.2107 137.576 73.944C135.101 69.592 133.864 64.856 133.864 59.736C133.864 53.9333 135.229 48.2587 137.96 42.712C140.691 37.1653 144.275 32.6427 148.712 29.144C153.149 25.6453 157.843 23.896 162.792 23.896C167.315 23.896 170.941 24.6213 173.672 26.072C176.488 27.4373 179.219 29.656 181.864 32.728C183.144 34.0933 183.784 35.5867 183.784 37.208C183.784 38.8293 183.187 40.2373 181.992 41.432C180.797 42.5413 179.347 43.096 177.64 43.096C176.531 43.096 175.635 42.9253 174.952 42.584C174.355 42.2427 173.629 41.56 172.776 40.536C171.325 38.9147 169.875 37.6773 168.424 36.824C167.059 35.9707 165.224 35.544 162.92 35.544C160.275 35.544 157.587 36.696 154.856 39C152.211 41.304 150.035 44.3333 148.328 48.088C146.707 51.7573 145.896 55.5547 145.896 59.48C145.896 62.8933 146.621 65.88 148.072 68.44C149.608 70.9147 151.571 72.8347 153.96 74.2C156.349 75.48 158.867 76.12 161.512 76.12C164.925 76.12 167.699 75.48 169.832 74.2C172.051 72.92 174.013 71.1707 175.72 68.952C177.341 66.8187 179.176 65.752 181.224 65.752C182.845 65.752 184.253 66.3493 185.448 67.544C186.643 68.6533 187.24 69.9333 187.24 71.384C187.24 73.0907 186.771 74.5413 185.832 75.736C183.357 79.064 179.987 81.9227 175.72 84.312C171.453 86.616 166.803 87.768 161.768 87.768ZM216.517 87.768C211.568 87.768 207.258 86.7013 203.589 84.568C200.005 82.3493 197.232 79.832 195.269 77.016C193.392 74.1147 192.453 71.768 192.453 69.976C192.453 68.2693 193.05 66.8613 194.245 65.752C195.44 64.5573 196.848 63.96 198.469 63.96C199.92 63.96 201.114 64.344 202.053 65.112C203.077 65.88 203.802 66.904 204.229 68.184C205.168 70.8293 206.704 72.92 208.837 74.456C210.97 75.992 213.616 76.76 216.773 76.76C220.101 76.76 222.704 75.9493 224.581 74.328C226.458 72.7067 227.397 70.872 227.397 68.824C227.397 66.8613 226.586 65.3253 224.965 64.216C223.429 63.0213 220.272 61.6987 215.493 60.248C208.496 58.1147 203.461 55.5973 200.389 52.696C197.317 49.7093 195.781 45.8267 195.781 41.048C195.781 36.0133 197.786 31.9173 201.797 28.76C205.808 25.5173 211.397 23.896 218.565 23.896C225.221 23.896 230.384 25.3467 234.053 28.248C237.808 31.1493 239.685 35.032 239.685 39.896C239.685 42.5413 239.13 44.5893 238.021 46.04C236.912 47.4053 235.333 48.088 233.285 48.088C231.493 48.088 230.042 47.5333 228.933 46.424C227.824 45.3147 227.269 44.12 227.269 42.84C227.269 42.4133 227.354 41.9013 227.525 41.304C227.781 40.6213 227.909 40.1093 227.909 39.768C227.909 38.232 227.141 36.9947 225.605 36.056C224.154 35.1173 221.893 34.648 218.821 34.648C214.981 34.648 212.122 35.2027 210.245 36.312C208.453 37.4213 207.557 38.9147 207.557 40.792C207.557 42.7547 208.496 44.376 210.373 45.656C212.25 46.8507 215.621 48.216 220.485 49.752C227.568 51.9707 232.474 54.4027 235.205 57.048C238.021 59.6933 239.429 63.4053 239.429 68.184C239.429 71.4267 238.448 74.584 236.485 77.656C234.608 80.6427 231.92 83.0747 228.421 84.952C225.008 86.8293 221.04 87.768 216.517 87.768ZM260.78 66.264C259.073 66.264 257.58 65.6667 256.3 64.472C255.105 63.192 254.508 61.6987 254.508 59.992V7.768C254.508 6.06133 255.105 4.56799 256.3 3.28799C257.58 2.008 259.073 1.368 260.78 1.368C262.572 1.368 264.065 2.008 265.26 3.28799C266.455 4.56799 267.052 6.06133 267.052 7.768V59.992C267.052 61.6987 266.455 63.192 265.26 64.472C264.065 65.6667 262.572 66.264 260.78 66.264ZM259.756 87.768C257.793 87.768 256.172 87.0853 254.892 85.72C253.697 84.3547 253.1 82.648 253.1 80.6C253.1 78.4667 253.868 76.5467 255.404 74.84C256.94 73.1333 258.689 72.28 260.652 72.28C262.615 72.28 264.193 73.0053 265.388 74.456C266.668 75.8213 267.308 77.4853 267.308 79.448C267.308 81.752 266.54 83.7147 265.004 85.336C263.468 86.9573 261.719 87.768 259.756 87.768Z" fill="black"/>
</svg>
